<?xml version="1.0" standalone="no"?><!DOCTYPE svg PUBLIC "-//W3C//DTD SVG 1.1//EN" "http://www.w3.org/Graphics/SVG/1.1/DTD/svg11.dtd"><svg t="1708590521560" class="icon" viewBox="0 0 1024 1024" version="1.1" xmlns="http://www.w3.org/2000/svg" p-id="1493" xmlns:xlink="http://www.w3.org/1999/xlink" width="200" height="200"><path d="M512 0c282.784 0 512 229.216 512 512s-229.216 512-512 512S0 794.784 0 512 229.216 0 512 0z m189.952 752l11.20000001-108.22400001c-31.904 9.53600001-100.92800001 16.128-147.712 16.12800002-134.46400001 0-205.728-47.29600001-195.32800002-146.30400002 11.58400001-110.688 113.152-145.696 232.64000001-145.69599999 54.784 0 122.43200001 8.79999999 151.296 18.33599999L768 272.70399999C724.54400001 262.24 678.272 256 599.584 256c-203.20000001 0-388.704 94.88-406.4 263.48800001C178.336 660.96 303.584 768 535.61600001 768c80.672 0 138.464-6.432 166.33599999-16z" fill="#007bff" p-id="1494"></path></svg>